<mxfile host="app.diagrams.net" modified="2022-10-27T10:31:05.251Z" agent="5.0 (Windows NT 10.0; Win64; x64) AppleWebKit/537.36 (KHTML, like Gecko) Chrome/107.0.0.0 Safari/537.36" etag="jph4njeu-d7hK9cwhPYP" version="20.5.1" type="github">
  <diagram name="Page-1" id="10a91c8b-09ff-31b1-d368-03940ed4cc9e">
    <mxGraphModel dx="1298" dy="684" grid="1" gridSize="10" guides="1" tooltips="1" connect="1" arrows="1" fold="1" page="1" pageScale="1" pageWidth="1100" pageHeight="850" background="none" math="0" shadow="0">
      <root>
        <mxCell id="0" />
        <mxCell id="1" parent="0" />
        <mxCell id="62893188c0fa7362-1" value="Admin" style="whiteSpace=wrap;html=1;rounded=1;shadow=1;labelBackgroundColor=none;strokeWidth=1;fontFamily=Verdana;fontSize=12;align=center;" parent="1" vertex="1">
          <mxGeometry x="440" y="70" width="120" height="60" as="geometry" />
        </mxCell>
        <mxCell id="62893188c0fa7362-8" value="subadmin" style="whiteSpace=wrap;html=1;rounded=1;shadow=1;labelBackgroundColor=none;strokeWidth=1;fontFamily=Verdana;fontSize=12;align=center;" parent="1" vertex="1">
          <mxGeometry x="350" y="170" width="120" height="60" as="geometry" />
        </mxCell>
        <mxCell id="7b5-rTCfm4iAhdw8AoHE-2" value="&lt;span&gt;subadmin&lt;/span&gt;" style="whiteSpace=wrap;html=1;rounded=1;shadow=1;labelBackgroundColor=none;strokeWidth=1;fontFamily=Verdana;fontSize=12;align=center;" vertex="1" parent="1">
          <mxGeometry x="530" y="170" width="120" height="60" as="geometry" />
        </mxCell>
        <mxCell id="7b5-rTCfm4iAhdw8AoHE-6" value="Grant Creator" style="whiteSpace=wrap;html=1;rounded=1;shadow=1;labelBackgroundColor=none;strokeWidth=1;fontFamily=Verdana;fontSize=12;align=center;" vertex="1" parent="1">
          <mxGeometry x="280" y="270" width="120" height="60" as="geometry" />
        </mxCell>
        <mxCell id="7b5-rTCfm4iAhdw8AoHE-7" value="Grant Creator" style="whiteSpace=wrap;html=1;rounded=1;shadow=1;labelBackgroundColor=none;strokeWidth=1;fontFamily=Verdana;fontSize=12;align=center;" vertex="1" parent="1">
          <mxGeometry x="440" y="270" width="120" height="60" as="geometry" />
        </mxCell>
        <mxCell id="7b5-rTCfm4iAhdw8AoHE-8" value="Grant Creator" style="whiteSpace=wrap;html=1;rounded=1;shadow=1;labelBackgroundColor=none;strokeWidth=1;fontFamily=Verdana;fontSize=12;align=center;" vertex="1" parent="1">
          <mxGeometry x="610" y="270" width="120" height="60" as="geometry" />
        </mxCell>
        <mxCell id="7b5-rTCfm4iAhdw8AoHE-9" value="user" style="whiteSpace=wrap;html=1;rounded=1;shadow=1;labelBackgroundColor=none;strokeWidth=1;fontFamily=Verdana;fontSize=12;align=center;" vertex="1" parent="1">
          <mxGeometry x="160" y="365" width="120" height="60" as="geometry" />
        </mxCell>
        <mxCell id="7b5-rTCfm4iAhdw8AoHE-10" value="user" style="whiteSpace=wrap;html=1;rounded=1;shadow=1;labelBackgroundColor=none;strokeWidth=1;fontFamily=Verdana;fontSize=12;align=center;" vertex="1" parent="1">
          <mxGeometry x="440" y="365" width="120" height="60" as="geometry" />
        </mxCell>
        <mxCell id="7b5-rTCfm4iAhdw8AoHE-11" value="user" style="whiteSpace=wrap;html=1;rounded=1;shadow=1;labelBackgroundColor=none;strokeWidth=1;fontFamily=Verdana;fontSize=12;align=center;" vertex="1" parent="1">
          <mxGeometry x="580" y="365" width="120" height="60" as="geometry" />
        </mxCell>
        <mxCell id="7b5-rTCfm4iAhdw8AoHE-12" value="user" style="whiteSpace=wrap;html=1;rounded=1;shadow=1;labelBackgroundColor=none;strokeWidth=1;fontFamily=Verdana;fontSize=12;align=center;" vertex="1" parent="1">
          <mxGeometry x="300" y="365" width="120" height="60" as="geometry" />
        </mxCell>
        <mxCell id="7b5-rTCfm4iAhdw8AoHE-13" value="user" style="whiteSpace=wrap;html=1;rounded=1;shadow=1;labelBackgroundColor=none;strokeWidth=1;fontFamily=Verdana;fontSize=12;align=center;" vertex="1" parent="1">
          <mxGeometry x="720" y="365" width="120" height="60" as="geometry" />
        </mxCell>
        <mxCell id="7b5-rTCfm4iAhdw8AoHE-15" value="&lt;div style=&quot;text-align: left; font-size: 14px;&quot;&gt;&lt;span style=&quot;background-color: transparent; font-size: 14px;&quot;&gt;&lt;font style=&quot;font-size: 14px;&quot;&gt;1) The admin has all rights, he can add, delete elements, remove and assign&lt;/font&gt;&lt;/span&gt;&lt;/div&gt;&lt;div style=&quot;overflow: hidden; position: relative; outline: 0px; font-size: 14px;&quot; id=&quot;tw-target-rmn-container&quot; class=&quot;tw-target-rmn tw-ta-container F0azHf tw-nfl&quot;&gt;&lt;div class=&quot;tw-data-placeholder tw-text-small tw-ta&quot; data-placeholder=&quot;&quot; id=&quot;tw-target-rmn&quot; dir=&quot;ltr&quot; style=&quot;unicode-bidi: isolate; background-color: transparent; border: none; padding: 0px 0.14em 0px 0px; position: relative; margin-top: 0px; margin-bottom: 0px; resize: none; overflow: hidden; width: 270px; overflow-wrap: break-word; font-size: 14px; line-height: 24px;&quot;&gt;&lt;span class=&quot;Y2IQFc&quot; style=&quot;font-size: 14px;&quot;&gt;&lt;/span&gt;&lt;/div&gt;&lt;/div&gt;&lt;div style=&quot;display: flex; justify-content: space-between; width: 302px; position: absolute; bottom: 0px; left: 0px; height: 48px; font-size: 14px;&quot; class=&quot;iYB33c&quot;&gt;&lt;div style=&quot;display: flex; margin: 10px 11px 0px auto; color: rgb(32, 33, 36); font-size: 14px;&quot; class=&quot;dlJLJe&quot;&gt;&lt;div style=&quot;visibility: hidden; position: relative; font-size: 14px;&quot; data-ved=&quot;2ahUKEwjElq-0lYD7AhUESfEDHdYeDoMQz_AEegQICRAP&quot; data-cviv=&quot;false&quot;&gt;&lt;span style=&quot;cursor: pointer; outline: 0px; display: inline-block; font-size: 14px;&quot; tabindex=&quot;0&quot; role=&quot;button&quot; data-width=&quot;0&quot; data-theme=&quot;0&quot; data-hover-open-delay=&quot;500&quot; data-hover-hide-delay=&quot;1000&quot; data-extra-container-classes=&quot;tw-verified-tooltip&quot; class=&quot;povykd&quot;&gt;&lt;div style=&quot;opacity: 0.74; font-size: 14px; font-style: italic; min-width: 26px; margin: -11px; padding: 11px;&quot; class=&quot;U9URNb&quot;&gt;&lt;img style=&quot;display: block; border: 0px; position: relative; padding-top: 3px; font-size: 14px;&quot; data-frt=&quot;0&quot; data-atf=&quot;0&quot; alt=&quot;Community Verified icon&quot; width=&quot;16&quot; height=&quot;16&quot; class=&quot;YQ4gaf zr758c wA1Bge&quot; src=&quot;data:image/png;base64,iVBORw0KGgoAAAANSUhEUgAAABQAAAAUCAQAAAAngNWGAAAA/0lEQVR4AYXNMSiEcRyA4cfmGHQbCZIipkuxnJgMStlMNmeyD2dwmc8+sZgxYJd9ErIZFHUyYYD7fkr6l4/rnvmtl7+KitrqV/fq2Y5eLY3Z9S48eRLe7BmVZ9qhTLhQ0algzZWQOVKSsCF8OjAnwbxDTWFDUhPK/jMr1H6HE/IqRky2DyvCefuwItwZzodVoYRiLqMkVCXrwpJ9twZ+sgfDYEFYl8wIWxZ9uFf7zkallxlJh4YrLGsKjZRx7VGHhLqwgFUN45DGdb8MeXGpgB4ABZdeDcpZEY51A+hyLKz4S1W4MQWm3AibWtgWmk6dyISa1pSdyWTOlLXVp0+eL9D/ZPfBTNanAAAAAElFTkSuQmCC&quot; id=&quot;dimg_3&quot;&gt;&lt;span style=&quot;display: inline-block; height: 26px; line-height: 26px; word-break: break-all; font-size: 14px;&quot; class=&quot;nlMhfd&quot;&gt;&lt;/span&gt;&lt;/div&gt;&lt;/span&gt;&lt;/div&gt;&lt;/div&gt;&lt;/div&gt;" style="text;html=1;resizable=0;autosize=1;align=center;verticalAlign=middle;points=[];fillColor=none;strokeColor=none;rounded=0;fontFamily=Times New Roman;fontSize=14;" vertex="1" parent="1">
          <mxGeometry x="623.75" y="10" width="450" height="30" as="geometry" />
        </mxCell>
        <mxCell id="7b5-rTCfm4iAhdw8AoHE-19" value="&lt;p style=&quot;font-size: 14px;&quot;&gt;&lt;font style=&quot;font-size: 14px;&quot;&gt;2) Subadmin, helps to administer but does not have full access to all rights,&lt;/font&gt;&lt;/p&gt;&lt;p style=&quot;font-size: 14px;&quot;&gt;&lt;font style=&quot;font-size: 14px;&quot;&gt;for example to some critical fields&lt;/font&gt;&lt;/p&gt;" style="text;html=1;align=center;verticalAlign=middle;resizable=0;points=[];autosize=1;strokeColor=none;fillColor=none;fontSize=14;fontFamily=Times New Roman;" vertex="1" parent="1">
          <mxGeometry x="630" y="35" width="440" height="90" as="geometry" />
        </mxCell>
        <mxCell id="7b5-rTCfm4iAhdw8AoHE-21" value="&lt;font style=&quot;font-size: 14px;&quot;&gt;3) The grant creator can create grants and, if necessary, can change grant fields, &lt;br style=&quot;font-size: 14px;&quot;&gt;confirms the grant application, but must not see the user&#39;s data&lt;/font&gt;" style="text;html=1;align=center;verticalAlign=middle;resizable=0;points=[];autosize=1;strokeColor=none;fillColor=none;fontSize=14;fontFamily=Times New Roman;" vertex="1" parent="1">
          <mxGeometry x="630" y="110" width="470" height="50" as="geometry" />
        </mxCell>
        <mxCell id="7b5-rTCfm4iAhdw8AoHE-22" value="&lt;div style=&quot;font-size: 14px;&quot;&gt;4) User can apply for a grant.&amp;nbsp;&amp;nbsp;&lt;span style=&quot;background-color: initial; font-size: 14px;&quot;&gt;Does not have any rights&lt;/span&gt;&lt;/div&gt;" style="text;html=1;align=center;verticalAlign=middle;resizable=0;points=[];autosize=1;strokeColor=none;fillColor=none;fontSize=14;fontFamily=Times New Roman;" vertex="1" parent="1">
          <mxGeometry x="677.5" y="170" width="330" height="30" as="geometry" />
        </mxCell>
        <mxCell id="7b5-rTCfm4iAhdw8AoHE-24" value="" style="ellipse;whiteSpace=wrap;html=1;aspect=fixed;fontFamily=Times New Roman;fontSize=14;labelBackgroundColor=#030303;fillColor=#524E54;strokeColor=#020203;" vertex="1" parent="1">
          <mxGeometry x="541.25" y="110" width="15" height="15" as="geometry" />
        </mxCell>
        <mxCell id="7b5-rTCfm4iAhdw8AoHE-25" value="" style="ellipse;whiteSpace=wrap;html=1;aspect=fixed;fontFamily=Times New Roman;fontSize=14;labelBackgroundColor=#030303;fillColor=#524E54;strokeColor=#000000;" vertex="1" parent="1">
          <mxGeometry x="470" y="110" width="15" height="15" as="geometry" />
        </mxCell>
        <mxCell id="7b5-rTCfm4iAhdw8AoHE-26" value="" style="ellipse;whiteSpace=wrap;html=1;aspect=fixed;fontFamily=Times New Roman;fontSize=14;labelBackgroundColor=#030303;fillColor=#524E54;strokeColor=#000000;" vertex="1" parent="1">
          <mxGeometry x="442.5" y="110" width="15" height="15" as="geometry" />
        </mxCell>
        <mxCell id="7b5-rTCfm4iAhdw8AoHE-27" value="" style="ellipse;whiteSpace=wrap;html=1;aspect=fixed;fontFamily=Times New Roman;fontSize=14;labelBackgroundColor=#030303;fillColor=#524E54;strokeColor=#000000;" vertex="1" parent="1">
          <mxGeometry x="515" y="110" width="15" height="15" as="geometry" />
        </mxCell>
        <mxCell id="7b5-rTCfm4iAhdw8AoHE-29" value="" style="ellipse;whiteSpace=wrap;html=1;aspect=fixed;fontFamily=Times New Roman;fontSize=14;labelBackgroundColor=#030303;fillColor=#524E54;strokeColor=#020203;" vertex="1" parent="1">
          <mxGeometry x="442.5" y="210" width="15" height="15" as="geometry" />
        </mxCell>
        <mxCell id="7b5-rTCfm4iAhdw8AoHE-30" value="" style="ellipse;whiteSpace=wrap;html=1;aspect=fixed;fontFamily=Times New Roman;fontSize=14;labelBackgroundColor=#030303;fillColor=#524E54;strokeColor=#000000;" vertex="1" parent="1">
          <mxGeometry x="360" y="210" width="15" height="15" as="geometry" />
        </mxCell>
        <mxCell id="7b5-rTCfm4iAhdw8AoHE-32" value="" style="ellipse;whiteSpace=wrap;html=1;aspect=fixed;fontFamily=Times New Roman;fontSize=14;labelBackgroundColor=#030303;fillColor=#524E54;strokeColor=#000000;" vertex="1" parent="1">
          <mxGeometry x="400" y="210" width="15" height="15" as="geometry" />
        </mxCell>
        <mxCell id="7b5-rTCfm4iAhdw8AoHE-37" value="" style="ellipse;whiteSpace=wrap;html=1;aspect=fixed;fontFamily=Times New Roman;fontSize=14;labelBackgroundColor=#030303;fillColor=#524E54;strokeColor=#020203;" vertex="1" parent="1">
          <mxGeometry x="623.75" y="210" width="15" height="15" as="geometry" />
        </mxCell>
        <mxCell id="7b5-rTCfm4iAhdw8AoHE-38" value="" style="ellipse;whiteSpace=wrap;html=1;aspect=fixed;fontFamily=Times New Roman;fontSize=14;labelBackgroundColor=#030303;fillColor=#524E54;strokeColor=#000000;" vertex="1" parent="1">
          <mxGeometry x="541.25" y="210" width="15" height="15" as="geometry" />
        </mxCell>
        <mxCell id="7b5-rTCfm4iAhdw8AoHE-39" value="" style="ellipse;whiteSpace=wrap;html=1;aspect=fixed;fontFamily=Times New Roman;fontSize=14;labelBackgroundColor=#030303;fillColor=#524E54;strokeColor=#000000;" vertex="1" parent="1">
          <mxGeometry x="581.25" y="210" width="15" height="15" as="geometry" />
        </mxCell>
        <mxCell id="7b5-rTCfm4iAhdw8AoHE-40" value="" style="ellipse;whiteSpace=wrap;html=1;aspect=fixed;fontFamily=Times New Roman;fontSize=14;labelBackgroundColor=#030303;fillColor=#524E54;strokeColor=#000000;" vertex="1" parent="1">
          <mxGeometry x="345" y="310" width="15" height="15" as="geometry" />
        </mxCell>
        <mxCell id="7b5-rTCfm4iAhdw8AoHE-41" value="" style="ellipse;whiteSpace=wrap;html=1;aspect=fixed;fontFamily=Times New Roman;fontSize=14;labelBackgroundColor=#030303;fillColor=#524E54;strokeColor=#000000;" vertex="1" parent="1">
          <mxGeometry x="317.5" y="310" width="15" height="15" as="geometry" />
        </mxCell>
        <mxCell id="7b5-rTCfm4iAhdw8AoHE-42" value="" style="ellipse;whiteSpace=wrap;html=1;aspect=fixed;fontFamily=Times New Roman;fontSize=14;labelBackgroundColor=#030303;fillColor=#524E54;strokeColor=#000000;" vertex="1" parent="1">
          <mxGeometry x="506.25" y="310" width="15" height="15" as="geometry" />
        </mxCell>
        <mxCell id="7b5-rTCfm4iAhdw8AoHE-43" value="" style="ellipse;whiteSpace=wrap;html=1;aspect=fixed;fontFamily=Times New Roman;fontSize=14;labelBackgroundColor=#030303;fillColor=#524E54;strokeColor=#000000;" vertex="1" parent="1">
          <mxGeometry x="478.75" y="310" width="15" height="15" as="geometry" />
        </mxCell>
        <mxCell id="7b5-rTCfm4iAhdw8AoHE-44" value="" style="ellipse;whiteSpace=wrap;html=1;aspect=fixed;fontFamily=Times New Roman;fontSize=14;labelBackgroundColor=#030303;fillColor=#524E54;strokeColor=#000000;" vertex="1" parent="1">
          <mxGeometry x="677.5" y="310" width="15" height="15" as="geometry" />
        </mxCell>
        <mxCell id="7b5-rTCfm4iAhdw8AoHE-45" value="" style="ellipse;whiteSpace=wrap;html=1;aspect=fixed;fontFamily=Times New Roman;fontSize=14;labelBackgroundColor=#030303;fillColor=#524E54;strokeColor=#000000;" vertex="1" parent="1">
          <mxGeometry x="650" y="310" width="15" height="15" as="geometry" />
        </mxCell>
        <mxCell id="7b5-rTCfm4iAhdw8AoHE-46" value="" style="ellipse;whiteSpace=wrap;html=1;aspect=fixed;fontFamily=Times New Roman;fontSize=14;labelBackgroundColor=#030303;fillColor=#524E54;strokeColor=#000000;" vertex="1" parent="1">
          <mxGeometry x="590" y="400" width="15" height="15" as="geometry" />
        </mxCell>
        <mxCell id="7b5-rTCfm4iAhdw8AoHE-47" value="" style="ellipse;whiteSpace=wrap;html=1;aspect=fixed;fontFamily=Times New Roman;fontSize=14;labelBackgroundColor=#030303;fillColor=#524E54;strokeColor=#000000;" vertex="1" parent="1">
          <mxGeometry x="730" y="400" width="15" height="15" as="geometry" />
        </mxCell>
        <mxCell id="7b5-rTCfm4iAhdw8AoHE-48" value="" style="ellipse;whiteSpace=wrap;html=1;aspect=fixed;fontFamily=Times New Roman;fontSize=14;labelBackgroundColor=#030303;fillColor=#524E54;strokeColor=#000000;" vertex="1" parent="1">
          <mxGeometry x="442.5" y="400" width="15" height="15" as="geometry" />
        </mxCell>
        <mxCell id="7b5-rTCfm4iAhdw8AoHE-49" value="" style="ellipse;whiteSpace=wrap;html=1;aspect=fixed;fontFamily=Times New Roman;fontSize=14;labelBackgroundColor=#030303;fillColor=#524E54;strokeColor=#000000;" vertex="1" parent="1">
          <mxGeometry x="310" y="400" width="15" height="15" as="geometry" />
        </mxCell>
        <mxCell id="7b5-rTCfm4iAhdw8AoHE-50" value="" style="ellipse;whiteSpace=wrap;html=1;aspect=fixed;fontFamily=Times New Roman;fontSize=14;labelBackgroundColor=#030303;fillColor=#524E54;strokeColor=#000000;" vertex="1" parent="1">
          <mxGeometry x="170" y="400" width="15" height="15" as="geometry" />
        </mxCell>
        <mxCell id="7b5-rTCfm4iAhdw8AoHE-51" value="" style="ellipse;whiteSpace=wrap;html=1;aspect=fixed;fontFamily=Times New Roman;fontSize=14;labelBackgroundColor=#030303;fillColor=#524E54;strokeColor=#000000;" vertex="1" parent="1">
          <mxGeometry x="90" y="650" width="20" height="20" as="geometry" />
        </mxCell>
        <mxCell id="7b5-rTCfm4iAhdw8AoHE-53" value="" style="ellipse;whiteSpace=wrap;html=1;aspect=fixed;fontFamily=Times New Roman;fontSize=14;labelBackgroundColor=#030303;fillColor=#524E54;strokeColor=#000000;" vertex="1" parent="1">
          <mxGeometry x="130" y="650" width="20" height="20" as="geometry" />
        </mxCell>
        <mxCell id="7b5-rTCfm4iAhdw8AoHE-55" value="" style="ellipse;whiteSpace=wrap;html=1;aspect=fixed;fontFamily=Times New Roman;fontSize=14;labelBackgroundColor=#030303;fillColor=#524E54;strokeColor=#000000;" vertex="1" parent="1">
          <mxGeometry x="170" y="650" width="20" height="20" as="geometry" />
        </mxCell>
        <mxCell id="7b5-rTCfm4iAhdw8AoHE-56" value="" style="ellipse;whiteSpace=wrap;html=1;aspect=fixed;fontFamily=Times New Roman;fontSize=14;labelBackgroundColor=#030303;fillColor=#524E54;strokeColor=#000000;" vertex="1" parent="1">
          <mxGeometry x="210" y="650" width="20" height="20" as="geometry" />
        </mxCell>
        <mxCell id="7b5-rTCfm4iAhdw8AoHE-57" value="" style="ellipse;whiteSpace=wrap;html=1;aspect=fixed;fontFamily=Times New Roman;fontSize=14;labelBackgroundColor=#030303;fillColor=#524E54;strokeColor=#000000;" vertex="1" parent="1">
          <mxGeometry x="90" y="730" width="20" height="20" as="geometry" />
        </mxCell>
        <mxCell id="7b5-rTCfm4iAhdw8AoHE-60" style="edgeStyle=orthogonalEdgeStyle;rounded=0;orthogonalLoop=1;jettySize=auto;html=1;fontFamily=Times New Roman;fontSize=14;" edge="1" parent="1" source="7b5-rTCfm4iAhdw8AoHE-59">
          <mxGeometry relative="1" as="geometry">
            <mxPoint x="340" y="660" as="targetPoint" />
          </mxGeometry>
        </mxCell>
        <mxCell id="7b5-rTCfm4iAhdw8AoHE-59" value="" style="rounded=0;whiteSpace=wrap;html=1;labelBackgroundColor=#030303;fontFamily=Times New Roman;fontSize=14;fillColor=none;" vertex="1" parent="1">
          <mxGeometry x="80" y="630" width="180" height="60" as="geometry" />
        </mxCell>
        <mxCell id="7b5-rTCfm4iAhdw8AoHE-62" value="&lt;div class=&quot;tw-data-text tw-text-large tw-ta&quot; data-placeholder=&quot;Translation&quot; id=&quot;tw-target-text&quot; dir=&quot;ltr&quot; style=&quot;unicode-bidi: isolate; line-height: 36px; border: none; padding: 2px 0.14em 2px 0px; position: relative; margin-top: -2px; margin-bottom: -2px; resize: none; overflow: hidden; width: 270px; overflow-wrap: break-word; color: rgb(32, 33, 36); font-size: 20px;&quot;&gt;&lt;span style=&quot;font-size: 20px;&quot; lang=&quot;en&quot; class=&quot;Y2IQFc&quot;&gt;&lt;font style=&quot;font-size: 20px;&quot;&gt;Maximum Rights&lt;/font&gt;&lt;/span&gt;&lt;/div&gt;" style="text;whiteSpace=wrap;html=1;fontSize=20;fontFamily=Times New Roman;fontColor=#FFFFFF;" vertex="1" parent="1">
          <mxGeometry x="350" y="640" width="120" height="40" as="geometry" />
        </mxCell>
        <mxCell id="7b5-rTCfm4iAhdw8AoHE-64" value="" style="rounded=0;whiteSpace=wrap;html=1;labelBackgroundColor=#030303;fontFamily=Times New Roman;fontSize=14;fillColor=none;" vertex="1" parent="1">
          <mxGeometry x="80" y="720" width="180" height="40" as="geometry" />
        </mxCell>
        <mxCell id="7b5-rTCfm4iAhdw8AoHE-65" style="edgeStyle=orthogonalEdgeStyle;rounded=0;orthogonalLoop=1;jettySize=auto;html=1;fontFamily=Times New Roman;fontSize=14;" edge="1" parent="1">
          <mxGeometry relative="1" as="geometry">
            <mxPoint x="340" y="739.71" as="targetPoint" />
            <mxPoint x="260" y="739.71" as="sourcePoint" />
          </mxGeometry>
        </mxCell>
        <mxCell id="7b5-rTCfm4iAhdw8AoHE-68" value="&lt;div style=&quot;text-align: center; font-size: 20px;&quot;&gt;&lt;span style=&quot;background-color: initial; font-size: 20px;&quot;&gt;&lt;font style=&quot;font-size: 20px;&quot; color=&quot;#000000&quot;&gt;Minimum Rights&lt;/font&gt;&lt;/span&gt;&lt;/div&gt;" style="text;whiteSpace=wrap;html=1;fontSize=20;fontFamily=Times New Roman;fontColor=#FFFFFF;" vertex="1" parent="1">
          <mxGeometry x="350" y="720" width="180" height="40" as="geometry" />
        </mxCell>
      </root>
    </mxGraphModel>
  </diagram>
</mxfile>
